<svg width="156" height="156" viewBox="0 0 156 156" fill="none" xmlns="http://www.w3.org/2000/svg">
<path d="M155.676 77.338C155.676 120.05 121.051 154.676 78.339 154.676C35.625 154.676 1 120.051 1 77.338C1 34.625 35.625 0 78.339 0C121.051 0.001 155.676 34.626 155.676 77.338Z" fill="#72AF43"/>
<path d="M66.5813 41.2018C69.6363 54.9858 68.4183 66.9808 63.8603 67.9908C59.3013 69.0008 53.1313 58.6438 50.0753 44.8578C47.0203 31.0718 48.2383 19.0788 52.7973 18.0678C57.3563 17.0598 63.5283 27.4148 66.5813 41.2018Z" fill="#E0DCD3"/>
<path d="M64.8523 41.5837C67.2673 52.4797 66.3033 61.9577 62.7003 62.7577C59.0983 63.5557 54.2193 55.3697 51.8053 44.4757C49.3903 33.5797 50.3543 24.1007 53.9563 23.3037C57.5603 22.5047 62.4363 30.6877 64.8523 41.5837Z" fill="#313439"/>
<path d="M88.6923 41.2018C85.6393 54.9858 86.8573 66.9808 91.4163 67.9908C95.9743 69.0008 102.145 58.6438 105.2 44.8578C108.255 31.0718 107.037 19.0788 102.478 18.0678C97.9183 17.0598 91.7483 27.4148 88.6923 41.2018Z" fill="#E0DCD3"/>
<path d="M90.4253 41.5837C88.0103 52.4797 88.9733 61.9577 92.5753 62.7577C96.1783 63.5557 101.055 55.3697 103.469 44.4757C105.883 33.5797 104.92 24.1007 101.318 23.3037C97.7163 22.5047 92.8383 30.6877 90.4253 41.5837Z" fill="#313439"/>
<path d="M112.519 90.2158C112.519 117.487 122.018 132.635 78.1943 132.635C34.3713 132.635 43.8683 114.854 43.8683 90.2158C43.8683 66.7878 58.8063 47.7958 78.1943 47.7958C97.5823 47.7958 112.519 66.7878 112.519 90.2158Z" fill="#F7F1E6"/>
<path d="M78.4873 135.561C97.7134 135.561 113.299 127.309 113.299 117.13C113.299 106.951 97.7134 98.6987 78.4873 98.6987C59.2612 98.6987 43.6753 106.951 43.6753 117.13C43.6753 127.309 59.2612 135.561 78.4873 135.561Z" fill="#313439"/>
<path d="M70.4213 81.8907C70.4213 84.4757 68.3263 86.5727 65.7403 86.5727C63.1543 86.5727 61.0603 84.4757 61.0603 81.8907C61.0603 79.3047 63.1553 77.2097 65.7403 77.2097C68.3253 77.2107 70.4213 79.3057 70.4213 81.8907Z" fill="#313439"/>
<path d="M66.0653 78.1208C66.0653 79.7708 64.7283 81.1097 63.0743 81.1097C61.4233 81.1097 60.0853 79.7708 60.0853 78.1208C60.0853 76.4688 61.4233 75.1307 63.0743 75.1307C64.7273 75.1307 66.0653 76.4688 66.0653 78.1208Z" fill="white"/>
<path d="M85.8963 81.8907C85.8963 84.4757 87.9903 86.5727 90.5773 86.5727C93.1613 86.5727 95.2573 84.4757 95.2573 81.8907C95.2573 79.3047 93.1613 77.2097 90.5773 77.2097C87.9903 77.2107 85.8963 79.3057 85.8963 81.8907Z" fill="#313439"/>
<path d="M90.2523 78.1198C90.2523 79.7708 91.5903 81.1097 93.2403 81.1097C94.8923 81.1097 96.2323 79.7708 96.2323 78.1198C96.2323 76.4688 94.8923 75.1307 93.2403 75.1307C91.5903 75.1307 90.2523 76.4688 90.2523 78.1198Z" fill="white"/>
<mask id="mask0_8_829" style="mask-type:luminance" maskUnits="userSpaceOnUse" x="43" y="47" width="70" height="86">
<path d="M112.519 90.2158C112.519 113.644 118.565 132.635 78.1943 132.635C37.8233 132.635 43.8683 113.644 43.8683 90.2158C43.8683 66.7878 58.8063 47.7958 78.1943 47.7958C97.5823 47.7958 112.519 66.7878 112.519 90.2158Z" fill="white"/>
</mask>
<g mask="url(#mask0_8_829)">
<path d="M122.823 86.1818C122.823 86.1818 122.731 86.2739 122.565 86.4129C122.4 86.5409 122.152 86.7678 121.848 86.9798C121.236 87.4248 120.375 87.9568 119.37 88.3958C118.364 88.8368 117.212 89.1959 116.006 89.3719C115.704 89.4179 115.4 89.4479 115.092 89.4759C114.791 89.4989 114.513 89.5388 114.223 89.5498C113.647 89.5808 113.071 89.5709 112.498 89.5169C111.926 89.4579 111.357 89.3568 110.798 89.2188C110.254 89.1328 109.717 88.9918 109.192 88.8158C108.666 88.6398 108.151 88.4218 107.653 88.1718C107.128 87.9498 106.611 87.6889 106.14 87.4289C105.195 86.8929 104.394 86.2788 103.826 85.7758C103.543 85.5338 103.317 85.2839 103.164 85.1389C103.01 84.9839 102.927 84.8828 102.927 84.8828C102.927 84.8828 103 84.7749 103.139 84.6079C103.278 84.4509 103.481 84.1809 103.744 83.9159C104.269 83.3639 105.029 82.6819 105.956 82.0639C106.422 81.7669 106.919 81.4479 107.467 81.1969C108.042 80.9599 108.659 80.7548 109.305 80.5918C109.951 80.4298 110.625 80.3019 111.31 80.2309C111.976 80.2069 112.649 80.2339 113.321 80.2959C113.992 80.3649 114.658 80.4778 115.307 80.6298C115.627 80.7068 115.958 80.7938 116.256 80.8938C116.545 81.0038 116.83 81.1178 117.109 81.2448C118.223 81.7438 119.236 82.4038 120.087 83.1048C120.938 83.8028 121.624 84.5509 122.095 85.1469C122.331 85.4349 122.509 85.7209 122.634 85.8889C122.759 86.0689 122.823 86.1818 122.823 86.1818Z" fill="#313439"/>
<path d="M113.872 56.5228C113.872 56.5228 113.827 56.6488 113.73 56.8538C113.63 57.0468 113.496 57.3688 113.3 57.7038C112.915 58.3958 112.329 59.2849 111.561 60.1629C111.169 60.5929 110.745 61.0478 110.332 61.4818C109.907 61.9148 109.451 62.3278 108.966 62.7088C108.479 63.1008 107.976 63.4178 107.426 63.7728C106.88 64.1128 106.31 64.4188 105.722 64.6868C104.534 65.1938 103.322 65.6488 102.066 65.8638C101.44 65.9758 100.831 66.0779 100.219 66.1209C99.6143 66.1769 98.9983 66.1588 98.4383 66.1608C97.3013 66.1358 96.2553 65.9779 95.4873 65.8269C95.1063 65.7579 94.7733 65.6508 94.5613 65.6058C94.3423 65.5498 94.2143 65.5068 94.2143 65.5068C94.2143 65.5068 94.2303 65.3748 94.2813 65.1528C94.3383 64.9388 94.4063 64.5978 94.5353 64.2268C94.6573 63.8478 94.8253 63.4028 95.0433 62.9368C95.2613 62.4698 95.5303 61.9738 95.8453 61.4608C96.1653 60.9548 96.5333 60.4468 96.9543 59.9528C97.3763 59.4628 97.8373 58.9628 98.3533 58.5228C98.8693 58.0808 99.4233 57.6558 100.012 57.2758C100.595 56.8858 101.223 56.5549 101.869 56.2669C102.516 55.9799 103.182 55.7318 103.85 55.5258C104.505 55.3108 105.24 55.1879 105.923 55.0899C106.616 54.9969 107.297 54.9508 107.951 54.9498C108.611 54.9308 109.223 55.0199 109.792 55.1209C110.94 55.3269 111.952 55.6558 112.684 55.9558C113.046 56.0958 113.351 56.2639 113.551 56.3529C113.759 56.4539 113.872 56.5228 113.872 56.5228Z" fill="#313439"/>
<path d="M123.991 108.025C123.991 108.025 123.844 108.046 123.588 108.059C123.339 108.06 122.947 108.104 122.503 108.106C122.048 108.119 121.537 108.105 120.951 108.085C120.361 108.064 119.722 108.012 119.051 107.929C118.393 107.827 117.665 107.748 116.944 107.601C116.217 107.462 115.488 107.264 114.744 107.053C113.991 106.856 113.24 106.614 112.503 106.324C112.135 106.178 111.766 106.029 111.405 105.86C111.036 105.709 110.668 105.556 110.304 105.394C109.579 105.063 108.872 104.696 108.19 104.291C107.515 103.867 106.84 103.493 106.203 103.067C105.566 102.644 104.961 102.189 104.395 101.715C104.112 101.478 103.837 101.238 103.576 100.99C103.31 100.759 103.046 100.553 102.799 100.327C101.807 99.4378 100.993 98.5238 100.427 97.8098C100.141 97.4618 99.9273 97.1278 99.7743 96.9268C99.6243 96.7138 99.5473 96.5828 99.5473 96.5828C99.5473 96.5828 99.6733 96.5118 99.9043 96.4098C100.133 96.3188 100.478 96.1498 100.905 96.0108C101.763 95.7108 102.985 95.3908 104.435 95.2158C104.799 95.1688 105.171 95.1458 105.563 95.1118C105.942 95.1058 106.332 95.1178 106.73 95.1378C107.527 95.1808 108.359 95.2708 109.21 95.4098C110.058 95.5538 110.937 95.7168 111.765 96.0268C112.603 96.3138 113.44 96.6498 114.259 97.0208C114.664 97.2158 115.076 97.3988 115.466 97.6188C115.854 97.8418 116.231 98.0818 116.603 98.3228C117.345 98.8068 118.05 99.3278 118.707 99.8668C119.357 100.419 119.941 101.023 120.477 101.611C121.012 102.201 121.486 102.798 121.889 103.4C122.291 104.002 122.635 104.578 122.916 105.112C123.198 105.653 123.417 106.168 123.577 106.594C123.746 107.015 123.833 107.39 123.903 107.629C123.967 107.88 123.991 108.025 123.991 108.025Z" fill="#313439"/>
<path d="M34.4483 86.8308C34.4483 86.8308 34.5133 86.7178 34.6393 86.5368C34.7673 86.3668 34.9493 86.0798 35.1913 85.7918C35.6743 85.1918 36.3773 84.4398 37.2483 83.7368C38.1193 83.0318 39.1573 82.3658 40.2983 81.8598C40.8613 81.6028 41.4623 81.3848 42.1243 81.2298C42.7733 81.0688 43.4393 80.9478 44.1113 80.8688C44.7843 80.7988 45.4563 80.7548 46.1293 80.7788C46.8103 80.8248 47.4833 80.9259 48.1303 81.0639C48.7773 81.2019 49.4033 81.3798 49.9853 81.5958C50.5443 81.8248 51.0743 82.1058 51.5623 82.3768C52.5393 82.9378 53.3533 83.5738 53.9223 84.0938C54.2073 84.3438 54.4313 84.5998 54.5833 84.7478C54.7363 84.9078 54.8173 85.0108 54.8173 85.0108C54.8173 85.0108 54.7383 85.1178 54.5913 85.2818C54.4443 85.4338 54.2283 85.6978 53.9523 85.9558C53.4023 86.4928 52.6163 87.1528 51.6743 87.7428C51.2023 88.0298 50.6923 88.3268 50.1523 88.5718C49.6353 88.8388 49.1043 89.0788 48.5523 89.2778C48.0023 89.4748 47.4363 89.6399 46.8593 89.7509C46.2783 89.8889 45.6793 90.0088 45.0803 90.0748C44.4793 90.1398 43.8743 90.1619 43.2713 90.1419C42.6803 90.1169 42.0513 90.0668 41.4283 89.9838C40.1933 89.8158 39.0133 89.4629 37.9843 89.0269C36.9543 88.5919 36.0733 88.0659 35.4463 87.6239C35.1343 87.4139 34.8813 87.1879 34.7123 87.0609C34.5413 86.9229 34.4483 86.8308 34.4483 86.8308Z" fill="#313439"/>
<path d="M39.4513 58.3718C39.4513 58.3718 39.5743 58.3048 39.7933 58.2098C40.0083 58.1248 40.3373 57.9638 40.7303 57.8308C41.5243 57.5478 42.6243 57.2408 43.8793 57.0618C45.1353 56.8808 46.5493 56.8218 47.9963 56.9558C48.7183 57.0138 49.4563 57.1338 50.1983 57.3228C50.9373 57.5038 51.6763 57.7268 52.3993 57.9918C53.8433 58.5278 55.2333 59.2187 56.4593 60.0447C57.0633 60.4637 57.6313 60.9108 58.1533 61.3738C58.6773 61.8308 59.1473 62.3258 59.5753 62.7918C59.9993 63.2698 60.3733 63.7388 60.6933 64.1868C61.0123 64.6378 61.2783 65.0598 61.4853 65.4288C61.6973 65.7868 61.8403 66.1248 61.9473 66.3308C62.0503 66.5468 62.0983 66.6788 62.0983 66.6788C62.0983 66.6788 61.9713 66.7398 61.7463 66.8238C61.5253 66.8978 61.1873 67.0428 60.7883 67.1548C59.9833 67.3968 58.8723 67.6558 57.6133 67.7868C56.9883 67.8438 56.3163 67.8917 55.6323 67.8807C54.9463 67.8737 54.2403 67.8248 53.5283 67.7318C52.1033 67.5748 50.6643 67.2198 49.2803 66.7088C47.8873 66.1968 46.6023 65.4988 45.3563 64.7228C44.1273 63.9438 43.0443 63.0308 42.1603 62.1188C41.2743 61.2098 40.5903 60.2938 40.1353 59.5838C39.9043 59.2388 39.7423 58.9098 39.6233 58.7108C39.5073 58.5008 39.4513 58.3718 39.4513 58.3718Z" fill="#313439"/>
<path d="M67.4363 37.5928C67.4363 37.5928 67.5713 37.6288 67.7943 37.7108C68.0073 37.7988 68.3553 37.9098 68.7283 38.0868C69.4953 38.4298 70.4973 38.9668 71.5213 39.7028C72.0273 40.0708 72.5603 40.4748 73.0573 41.0038C73.5603 41.5148 74.0543 42.0797 74.5263 42.6907C74.7633 42.9957 74.9903 43.3138 75.2143 43.6388C75.4163 43.9768 75.6173 44.3218 75.8043 44.6758C76.1763 45.3878 76.5333 46.1158 76.8153 46.8878C77.0743 47.6768 77.2953 48.4808 77.4653 49.2808C77.6213 50.0838 77.6733 50.8948 77.7083 51.6768C77.7413 52.4618 77.6563 53.1848 77.5723 53.8958C77.4893 54.6128 77.3183 55.2448 77.1593 55.8508C76.9863 56.4548 76.7883 57.0267 76.5963 57.5187C76.3993 58.0187 76.2033 58.4637 76.0143 58.8387C75.8383 59.2117 75.6423 59.5218 75.5343 59.7278C75.4153 59.9358 75.3343 60.0518 75.3343 60.0518C75.3343 60.0518 75.2123 59.9858 75.0163 59.8508C74.8303 59.7148 74.5213 59.5228 74.2013 59.2568C73.8683 58.9938 73.4963 58.6637 73.0993 58.2737C72.6983 57.8797 72.3083 57.4407 71.9053 56.9457C71.5183 56.4547 71.1113 55.8937 70.7483 55.3547C70.3753 54.8137 70.0513 54.1997 69.7183 53.6307C69.3863 53.0587 69.1073 52.4577 68.8383 51.8517C68.5503 51.2527 68.3043 50.6347 68.0973 50.0027C67.8703 49.3667 67.6413 48.7177 67.4783 48.0577C67.3933 47.7287 67.3233 47.3957 67.2583 47.0627C67.1833 46.7307 67.1083 46.4027 67.0523 46.0707C66.9353 45.4077 66.8623 44.7428 66.8263 44.0868C66.8023 43.4398 66.7763 42.7627 66.7653 42.1357C66.7643 40.8757 66.9113 39.7498 67.0803 38.9288C67.1553 38.5238 67.2683 38.1758 67.3213 37.9518C67.3863 37.7228 67.4363 37.5928 67.4363 37.5928Z" fill="#313439"/>
<path d="M89.2473 40.0627C89.2473 40.0627 89.3023 40.1847 89.3743 40.3987C89.4373 40.6077 89.5633 40.9318 89.6553 41.3098C89.8583 42.0758 90.0553 43.1217 90.1123 44.2867C90.1293 44.8677 90.1393 45.4897 90.1453 46.0887C90.1403 46.6957 90.0993 47.3098 90.0153 47.9208C89.9373 48.5398 89.7953 49.1168 89.6463 49.7548C89.4893 50.3788 89.2923 50.9947 89.0563 51.5967C88.5543 52.7867 87.9983 53.9558 87.2443 54.9828C86.8713 55.4988 86.5043 55.9947 86.0943 56.4507C85.6983 56.9107 85.2423 57.3267 84.8413 57.7167C84.0063 58.4877 83.1443 59.1028 82.4863 59.5268C82.1643 59.7418 81.8513 59.8978 81.6683 60.0118C81.4723 60.1238 81.3493 60.1818 81.3493 60.1818C81.3493 60.1818 81.2693 60.0767 81.1523 59.8807C81.0443 59.6877 80.8563 59.3948 80.6913 59.0378C80.5163 58.6798 80.3283 58.2427 80.1603 57.7557C79.9923 57.2697 79.8413 56.7268 79.7123 56.1388C79.5903 55.5518 79.5023 54.9308 79.4623 54.2838C79.4253 53.6368 79.4093 52.9578 79.4753 52.2828C79.5393 51.6058 79.6423 50.9168 79.8023 50.2328C79.9513 49.5468 80.1733 48.8737 80.4383 48.2167C80.7043 47.5597 81.0103 46.9197 81.3493 46.3077C81.6713 45.6977 82.1143 45.0988 82.5373 44.5528C82.9713 44.0048 83.4303 43.4988 83.8993 43.0428C84.3613 42.5708 84.8633 42.2098 85.3433 41.8868C86.3123 41.2388 87.2683 40.7728 88.0043 40.4808C88.3623 40.3288 88.6983 40.2368 88.9033 40.1628C89.1173 40.0928 89.2473 40.0627 89.2473 40.0627Z" fill="#313439"/>
<path d="M32.5833 108.417C32.5833 108.417 32.6113 108.27 32.6833 108.019C32.7593 107.777 32.8543 107.395 33.0343 106.967C33.2043 106.532 33.4353 106.014 33.7303 105.459C34.0253 104.915 34.3833 104.329 34.8013 103.716C35.6343 102.485 36.7673 101.27 38.0843 100.093C38.7613 99.5397 39.4873 99.0027 40.2513 98.5027C41.0143 98.0027 41.8053 97.5177 42.6563 97.1417C43.5003 96.7547 44.3603 96.4027 45.2233 96.0977C45.6583 95.9517 46.0823 95.7977 46.5233 95.6917C46.9693 95.5917 47.4103 95.4987 47.8493 95.4237C48.7253 95.2697 49.5843 95.1657 50.4063 95.1107C50.8173 95.0827 51.2173 95.0647 51.6093 95.0637C52.0043 95.0727 52.3963 95.1057 52.7693 95.1437C54.2683 95.3007 55.5273 95.6067 56.4113 95.8977C56.8503 96.0327 57.2063 96.1987 57.4413 96.2867C57.6783 96.3857 57.8083 96.4557 57.8083 96.4557C57.8083 96.4557 57.7273 96.5877 57.5713 96.8037C57.4113 97.0077 57.1883 97.3447 56.8913 97.6957C56.3023 98.4207 55.4583 99.3457 54.4323 100.248C53.9213 100.688 53.3693 101.167 52.7843 101.672C52.1983 102.157 51.5733 102.624 50.9133 103.059C50.5843 103.28 50.2453 103.485 49.9003 103.69C49.5583 103.903 49.2113 104.119 48.8613 104.336C48.1563 104.755 47.4233 105.138 46.6743 105.486C45.9153 105.81 45.1663 106.169 44.4033 106.476C43.6403 106.783 42.8643 107.04 42.0873 107.255C41.3253 107.497 40.5663 107.702 39.8183 107.861C39.0703 108.02 38.3273 108.123 37.6493 108.237C36.9583 108.334 36.3013 108.398 35.6953 108.429C35.0973 108.463 34.5683 108.485 34.1023 108.48C33.6473 108.485 33.2473 108.447 32.9933 108.45C32.7333 108.437 32.5833 108.417 32.5833 108.417Z" fill="#313439"/>
</g>
<path d="M71.0063 112.872C71.0063 115.456 68.9123 117.553 66.3263 117.553C63.7413 117.553 61.6453 115.456 61.6453 112.872C61.6453 110.287 63.7403 108.189 66.3263 108.189C68.9113 108.189 71.0063 110.287 71.0063 112.872Z" fill="#F7F1E6"/>
<path d="M97.4033 112.872C97.4033 115.456 95.3063 117.553 92.7213 117.553C90.1363 117.553 88.0413 115.456 88.0413 112.872C88.0413 110.287 90.1363 108.189 92.7213 108.189C95.3063 108.189 97.4033 110.287 97.4033 112.872Z" fill="#F7F1E6"/>
</svg>
