<svg width="155" height="156" viewBox="0 0 155 156" fill="none" xmlns="http://www.w3.org/2000/svg">
<g clip-path="url(#clip0_8_870)">
<path d="M154.897 77.802C154.897 120.514 120.272 155.14 77.558 155.14C34.846 155.14 0.221008 120.514 0.221008 77.802C0.221008 35.089 34.846 0.463989 77.558 0.463989C120.272 0.463989 154.897 35.089 154.897 77.802Z" fill="#F19CA6"/>
<path d="M128.192 75.4731C148.021 112.14 119.877 123.984 74.215 123.984C22.203 123.984 12.607 109.268 25.809 75.064C37.137 45.712 57.221 42.1071 75.244 42.1071C93.268 42.1061 113.942 49.1231 128.192 75.4731Z" fill="#E0DCD3"/>
<path d="M124.484 101.583C119.785 109.378 107.329 111.496 92.653 113.04C84.858 108.344 83.305 80.6111 85.226 71.7161C87.287 62.1901 96.729 54.8951 109.301 64.8131C116.448 70.4481 129.182 93.7891 124.484 101.583Z" fill="#BAB7B0"/>
<path d="M30.483 102.87C35.179 110.665 54.202 112.912 63.598 113.941C71.395 109.245 74.2 82.4001 71.709 70.3C69.877 61.385 56.391 51.7611 44.289 65.0211C32.188 78.2821 25.784 95.076 30.483 102.87Z" fill="#BAB7B0"/>
<path d="M93.571 79.487C93.571 84.081 97.2961 87.802 101.887 87.802C106.478 87.802 110.201 84.08 110.201 79.487C110.201 74.895 106.478 71.172 101.887 71.172C97.2961 71.172 93.571 74.895 93.571 79.487Z" fill="white"/>
<path d="M97.679 79.558C97.679 81.883 99.562 83.766 101.888 83.766C104.212 83.766 106.096 81.882 106.096 79.558C106.096 77.233 104.212 75.35 101.888 75.35C99.561 75.35 97.679 77.232 97.679 79.558Z" fill="#3B3E43"/>
<path d="M100.94 76.251C100.94 77.471 101.928 78.461 103.15 78.461C104.371 78.461 105.361 77.471 105.361 76.251C105.361 75.03 104.371 74.041 103.15 74.041C101.928 74.042 100.94 75.03 100.94 76.251Z" fill="white"/>
<path d="M61.438 77.382C61.438 81.975 57.715 85.698 53.123 85.698C48.531 85.698 44.807 81.975 44.807 77.382C44.807 72.791 48.531 69.066 53.123 69.066C57.715 69.066 61.438 72.792 61.438 77.382Z" fill="white"/>
<path d="M57.331 77.454C57.331 79.778 55.447 81.662 53.122 81.662C50.799 81.662 48.913 79.778 48.913 77.454C48.913 75.128 50.799 73.244 53.122 73.244C55.447 73.244 57.331 75.128 57.331 77.454Z" fill="#3B3E43"/>
<path d="M54.071 74.1471C54.071 75.3681 53.081 76.3561 51.859 76.3561C50.639 76.3561 49.65 75.3681 49.65 74.1471C49.65 72.9251 50.639 71.9351 51.859 71.9351C53.081 71.9361 54.071 72.9251 54.071 74.1471Z" fill="white"/>
<path d="M104.554 104.159C104.554 112.69 88.55 119.606 74.722 119.606C60.894 119.606 49.685 112.69 49.685 104.159C49.685 95.626 60.894 88.709 74.722 88.709C88.55 88.709 104.554 95.626 104.554 104.159Z" fill="white"/>
<path d="M87.507 103.13C87.507 107.116 82.855 112.076 77.118 112.076C71.381 112.076 66.731 107.116 66.731 103.13C66.731 99.146 71.381 95.916 77.118 95.916C82.854 95.916 87.507 99.146 87.507 103.13Z" fill="#3B3E43"/>
<path d="M83.8849 100.97C83.6429 101.927 82.2249 102.391 80.7179 102.008C79.2129 101.625 78.1899 100.541 78.4309 99.585C78.6749 98.628 80.0929 98.165 81.5989 98.547C83.1039 98.93 84.1279 100.014 83.8849 100.97Z" fill="white"/>
<path d="M36.0929 32.15C28.5399 35.796 36.368 59.956 36.368 59.956L61.953 44.866C61.953 44.866 43.6469 28.503 36.0929 32.15Z" fill="#E0DCD3"/>
<path d="M39.175 35.688C34.101 38.138 39.363 54.371 39.363 54.371L56.553 44.233C56.553 44.233 44.251 33.238 39.175 35.688Z" fill="#BAB7B0"/>
<path d="M118.917 32.15C126.469 35.796 118.641 59.956 118.641 59.956L93.058 44.866C93.058 44.866 111.364 28.503 118.917 32.15Z" fill="#E0DCD3"/>
<path d="M115.833 35.688C120.909 38.138 115.649 54.371 115.649 54.371L98.458 44.233C98.458 44.233 110.76 33.238 115.833 35.688Z" fill="#BAB7B0"/>
</g>
<defs>
<clipPath id="clip0_8_870">
<rect width="155" height="156" fill="white"/>
</clipPath>
</defs>
</svg>
