<svg width="156" height="156" viewBox="0 0 156 156" fill="none" xmlns="http://www.w3.org/2000/svg">
<g clip-path="url(#clip0_8_845)">
<path d="M78.005 155.503C120.718 155.503 155.343 120.878 155.343 78.165C155.343 35.4524 120.718 0.827026 78.005 0.827026C35.2924 0.827026 0.666992 35.4524 0.666992 78.165C0.666992 120.878 35.2924 155.503 78.005 155.503Z" fill="#950F4E"/>
<path d="M53.402 54.565C52.071 53.16 50.297 51.573 48.784 50.71L48.285 50.432C48.2 50.781 47.997 51.473 47.845 52.283C47.579 53.968 47.607 55.702 47.649 58.072C47.697 60.416 47.729 63.272 47.503 66.199C47.286 69.134 46.838 72.118 46.219 74.997C44.974 80.773 43.12 86.169 41.055 91.318L40.933 91.624C38.322 98.128 30.935 101.285 24.433 98.678C17.93 96.071 14.772 88.683 17.38 82.177C17.823 81.072 18.445 80.016 19.138 79.114C21.915 75.541 24.422 71.916 26.408 68.241C27.403 66.397 28.258 64.552 28.993 62.589C29.74 60.617 30.332 58.51 31.01 55.904C31.683 53.332 32.567 50.11 34.077 47.119C34.812 45.6 35.672 44.011 37.042 42.328C37.731 41.492 38.567 40.628 39.648 39.824C40.721 39.029 42.058 38.298 43.564 37.901C45.059 37.487 46.631 37.434 47.981 37.637C49.345 37.837 50.492 38.254 51.476 38.721C53.426 39.676 54.783 40.82 55.961 41.95C57.125 43.091 58.086 44.253 58.958 45.433C59.843 46.645 60.564 47.75 61.371 49.154C62.698 51.463 61.903 54.408 59.596 55.736C57.626 56.868 55.188 56.456 53.693 54.873L53.402 54.565Z" fill="#7B5735"/>
<path d="M102.608 54.565C103.939 53.16 105.714 51.573 107.225 50.71L107.724 50.432C107.809 50.781 108.011 51.473 108.164 52.283C108.432 53.968 108.404 55.702 108.36 58.072C108.31 60.416 108.28 63.272 108.506 66.199C108.723 69.134 109.171 72.118 109.79 74.997C111.034 80.773 112.889 86.169 114.954 91.318L115.078 91.624C117.687 98.128 125.075 101.285 131.576 98.678C138.081 96.071 141.238 88.683 138.63 82.177C138.186 81.072 137.565 80.016 136.872 79.114C134.095 75.541 131.59 71.916 129.602 68.241C128.609 66.397 127.752 64.552 127.015 62.589C126.272 60.617 125.678 58.51 124.999 55.904C124.328 53.332 123.444 50.11 121.934 47.119C121.199 45.6 120.342 44.011 118.969 42.328C118.28 41.492 117.445 40.628 116.366 39.824C115.291 39.029 113.954 38.298 112.448 37.901C110.953 37.487 109.381 37.434 108.031 37.637C106.667 37.837 105.521 38.254 104.537 38.721C102.587 39.676 101.228 40.82 100.053 41.95C98.889 43.091 97.925 44.253 97.054 45.433C96.167 46.645 95.447 47.75 94.64 49.154C93.313 51.463 94.107 54.408 96.415 55.736C98.384 56.868 100.823 56.456 102.317 54.873L102.608 54.565Z" fill="#7B5735"/>
<path d="M78.581 44.9349C78.593 44.9359 78.605 44.9349 78.615 44.9349C78.605 44.9349 78.593 44.9349 78.581 44.9349Z" fill="#E96332"/>
<path d="M113.541 79.747C113.541 60.543 97.99 44.972 78.795 44.936V44.934C78.783 44.934 78.772 44.935 78.76 44.935C78.749 44.935 78.739 44.934 78.728 44.934V44.936C78.713 44.936 78.694 44.936 78.679 44.936C78.663 44.936 78.647 44.936 78.631 44.936V44.934C78.62 44.934 78.609 44.935 78.597 44.935C78.586 44.935 78.576 44.934 78.564 44.934V44.936C59.369 44.971 43.818 60.543 43.818 79.747C43.818 80.199 35.453 89.635 41.169 100.904C44.328 107.136 61.766 118.624 78.381 118.806C95.997 118.999 112.841 107.513 116.192 100.904C121.905 89.635 113.541 80.199 113.541 79.747Z" fill="#8A603C"/>
<path d="M87.388 74.2231C87.388 77.1691 89.78 79.5601 92.726 79.5601C95.674 79.5601 98.065 77.1691 98.065 74.2231C98.065 71.2741 95.674 68.8831 92.726 68.8831C89.779 68.8831 87.388 71.2731 87.388 74.2231Z" fill="#3B3E43"/>
<path d="M91.523 70.0291C91.523 71.5781 92.779 72.8311 94.327 72.8311C95.873 72.8311 97.13 71.5781 97.13 70.0291C97.13 68.4801 95.874 67.2251 94.327 67.2251C92.78 67.2261 91.523 68.4801 91.523 70.0291Z" fill="white"/>
<path d="M71.601 74.2231C71.601 77.1691 69.214 79.5601 66.266 79.5601C63.319 79.5601 60.928 77.1691 60.928 74.2231C60.928 71.2741 63.319 68.8831 66.266 68.8831C69.214 68.8831 71.601 71.2731 71.601 74.2231Z" fill="#3B3E43"/>
<path d="M67.467 70.0291C67.467 71.5781 66.213 72.8311 64.665 72.8311C63.115 72.8311 61.863 71.5781 61.863 70.0291C61.863 68.4801 63.115 67.2251 64.665 67.2251C66.212 67.2261 67.467 68.4801 67.467 70.0291Z" fill="white"/>
<mask id="mask0_8_845" style="mask-type:luminance" maskUnits="userSpaceOnUse" x="39" y="44" width="80" height="75">
<path d="M113.541 79.747C113.541 60.543 97.99 44.972 78.795 44.936V44.934C78.783 44.934 78.772 44.935 78.76 44.935C78.749 44.935 78.739 44.934 78.728 44.934V44.936C78.713 44.936 78.694 44.936 78.679 44.936C78.663 44.936 78.647 44.936 78.631 44.936V44.934C78.62 44.934 78.609 44.935 78.597 44.935C78.586 44.935 78.576 44.934 78.564 44.934V44.936C59.369 44.971 43.818 60.543 43.818 79.747C43.818 80.199 35.453 89.635 41.169 100.904C44.328 107.136 61.766 118.624 78.381 118.806C95.997 118.999 112.841 107.513 116.192 100.904C121.905 89.635 113.541 80.199 113.541 79.747Z" fill="white"/>
</mask>
<g mask="url(#mask0_8_845)">
<path d="M104.328 103.77C104.328 111.879 92.711 123.28 78.38 123.28C64.05 123.28 52.432 111.88 52.432 103.77C52.432 95.6619 64.05 89.0869 78.38 89.0869C92.71 89.0869 104.328 95.6609 104.328 103.77Z" fill="#F3DBBD"/>
</g>
<path d="M85.923 89.1419C85.923 91.8469 82.767 95.2129 78.873 95.2129C74.977 95.2129 71.821 91.8469 71.821 89.1419C71.821 86.4379 74.977 84.2449 78.873 84.2449C82.767 84.2449 85.923 86.4379 85.923 89.1419Z" fill="#3B3E43"/>
<path d="M71.522 103.487C69.587 103.487 67.446 102.533 65.126 100.635C64.816 100.383 64.771 99.9269 65.026 99.6169C65.278 99.3079 65.734 99.2629 66.042 99.5159C68.755 101.734 71.09 102.494 72.984 101.775C76.758 100.338 77.877 93.5829 77.888 93.5159C77.948 93.1199 78.32 92.8529 78.716 92.9149C79.11 92.9789 79.379 93.3499 79.316 93.7429C79.266 94.0549 78.046 101.394 73.499 103.125C72.866 103.367 72.207 103.487 71.522 103.487Z" fill="#3B3E43"/>
<path d="M84.947 104.121C84.351 104.121 83.778 104.013 83.23 103.794C78.905 102.063 78.095 94.0409 78.062 93.6999C78.023 93.3019 78.316 92.949 78.713 92.911C79.11 92.872 79.464 93.1648 79.502 93.5628C79.702 95.6388 80.857 101.286 83.769 102.45C85.366 103.09 87.4 102.349 89.819 100.253C90.12 99.9909 90.577 100.025 90.839 100.326C91.099 100.628 91.069 101.085 90.766 101.347C88.637 103.192 86.686 104.121 84.947 104.121Z" fill="#3B3E43"/>
<path d="M83.465 87.6769C83.302 88.3259 82.338 88.6389 81.316 88.3799C80.294 88.1199 79.599 87.3839 79.763 86.7339C79.928 86.0859 80.891 85.7709 81.914 86.0309C82.935 86.2919 83.63 87.0259 83.465 87.6769Z" fill="white"/>
<path d="M60.987 94.666C60.835 94.666 60.682 94.609 60.564 94.495C60.482 94.415 52.057 86.442 28.181 82.795C27.851 82.744 27.625 82.437 27.676 82.107C27.726 81.778 28.041 81.556 28.364 81.602C52.685 85.318 61.066 93.294 61.409 93.631C61.646 93.865 61.651 94.246 61.418 94.485C61.301 94.604 61.145 94.666 60.987 94.666Z" fill="#3D342F"/>
<path d="M59.581 97.8001C59.479 97.8001 59.377 97.7751 59.282 97.7211C59.183 97.6651 49.01 92.0781 24.993 94.5811C24.671 94.6121 24.364 94.3761 24.331 94.0431C24.296 93.7121 24.537 93.4141 24.868 93.3801C49.344 90.8291 59.462 96.4341 59.881 96.6731C60.169 96.8391 60.27 97.2071 60.105 97.4951C59.995 97.6901 59.79 97.8001 59.581 97.8001Z" fill="#3D342F"/>
<path d="M24.674 106.309C24.422 106.309 24.188 106.152 24.103 105.901C23.995 105.587 24.163 105.243 24.477 105.135C47.752 97.1619 58.873 100.349 59.336 100.49C59.654 100.586 59.835 100.922 59.739 101.241C59.642 101.559 59.312 101.741 58.987 101.645C58.878 101.612 47.715 98.4509 24.868 106.276C24.804 106.298 24.738 106.309 24.674 106.309Z" fill="#3D342F"/>
<path d="M95.579 95.873C95.422 95.873 95.265 95.813 95.147 95.691C94.915 95.453 94.918 95.072 95.156 94.838C95.501 94.5 103.88 86.524 128.202 82.808C128.532 82.76 128.838 82.984 128.89 83.313C128.94 83.643 128.714 83.951 128.385 84.001C104.509 87.649 96.084 95.622 96.002 95.701C95.883 95.815 95.73 95.873 95.579 95.873Z" fill="#3D342F"/>
<path d="M96.983 99.0069C96.775 99.0069 96.57 98.899 96.46 98.703C96.293 98.415 96.395 98.046 96.684 97.88C97.103 97.642 107.227 92.036 131.695 94.588C132.027 94.622 132.269 94.919 132.234 95.25C132.199 95.582 131.901 95.8199 131.571 95.7869C107.483 93.2809 97.382 98.871 97.283 98.927C97.189 98.981 97.086 99.0069 96.983 99.0069Z" fill="#3D342F"/>
<path d="M131.894 107.516C131.828 107.516 131.763 107.505 131.696 107.484C108.853 99.6589 97.689 102.82 97.578 102.853C97.255 102.95 96.922 102.766 96.827 102.448C96.731 102.13 96.912 101.794 97.23 101.697C97.693 101.557 108.811 98.3699 132.088 106.343C132.403 106.449 132.572 106.793 132.463 107.109C132.378 107.358 132.143 107.516 131.894 107.516Z" fill="#3D342F"/>
</g>
<defs>
<clipPath id="clip0_8_845">
<rect width="156" height="156" fill="white"/>
</clipPath>
</defs>
</svg>
