<svg width="155" height="155" viewBox="0 0 155 155" fill="none" xmlns="http://www.w3.org/2000/svg">
<g clip-path="url(#clip0_8_931)">
<path d="M77.338 154.676C120.051 154.676 154.676 120.051 154.676 77.338C154.676 34.6254 120.051 0 77.338 0C34.6254 0 0 34.6254 0 77.338C0 120.051 34.6254 154.676 77.338 154.676Z" fill="#523674"/>
<path d="M91.2371 65.459C98.4011 36.408 122.026 26.239 122.026 26.239C122.026 26.239 138.915 70.327 106.632 80.841L91.2371 65.459Z" fill="#D45F26"/>
<path d="M94.6841 68.131C103.911 40.536 118.691 35.724 118.691 35.724C118.691 35.724 131.463 62.074 103.404 78.147L94.6841 68.131Z" fill="#F3DBBD"/>
<path d="M63.4401 65.459C56.2751 36.408 32.6491 26.239 32.6491 26.239C32.6491 26.239 15.7621 70.327 48.0441 80.841L63.4401 65.459Z" fill="#D45F26"/>
<path d="M59.993 68.131C50.763 40.536 35.984 35.724 35.984 35.724C35.984 35.724 23.213 62.074 51.272 78.147L59.993 68.131Z" fill="#F3DBBD"/>
<path d="M113.014 93.4819C113.014 73.8749 97.138 57.9779 77.538 57.9429V57.9399C77.526 57.9399 77.5151 57.9409 77.5041 57.9409C77.4921 57.9409 77.482 57.9399 77.47 57.9399V57.9429C77.454 57.9429 77.437 57.9429 77.421 57.9429C77.405 57.9429 77.387 57.9429 77.371 57.9429V57.9399C77.358 57.9399 77.348 57.9409 77.337 57.9409C77.325 57.9409 77.313 57.9399 77.302 57.9399V57.9429C57.703 57.9779 41.8261 73.8759 41.8261 93.4819C41.8261 93.9459 33.286 103.579 39.121 115.085C42.348 121.447 60.151 128.246 77.115 128.433C95.1 128.631 112.297 121.831 115.719 115.085C121.554 103.579 113.014 93.9459 113.014 93.4819Z" fill="#EA692B"/>
<path d="M86.3121 87.8419C86.3121 90.8509 88.7541 93.2909 91.7641 93.2909C94.7711 93.2909 97.2141 90.8499 97.2141 87.8419C97.2141 84.8319 94.7721 82.3909 91.7641 82.3909C88.7541 82.3909 86.3121 84.8329 86.3121 87.8419Z" fill="#3B3E43"/>
<path d="M90.5341 83.5609C90.5341 85.1419 91.8181 86.4209 93.3981 86.4209C94.9781 86.4209 96.259 85.1419 96.259 83.5609C96.259 81.9789 94.9781 80.7 93.3981 80.7C91.8181 80.7 90.5341 81.9789 90.5341 83.5609Z" fill="white"/>
<path d="M70.1951 87.8419C70.1951 90.8509 67.7571 93.2909 64.7471 93.2909C61.7381 93.2909 59.2971 90.8499 59.2971 87.8419C59.2971 84.8319 61.7371 82.3909 64.7471 82.3909C67.7571 82.3909 70.1951 84.8329 70.1951 87.8419Z" fill="#3B3E43"/>
<path d="M65.974 83.5609C65.974 85.1419 64.692 86.4209 63.112 86.4209C61.531 86.4209 60.251 85.1419 60.251 83.5609C60.251 81.9789 61.53 80.7 63.112 80.7C64.692 80.7 65.974 81.9789 65.974 83.5609Z" fill="white"/>
<path d="M86.6401 111.842C86.6401 115.195 82.7271 119.368 77.9021 119.368C73.0741 119.368 69.1641 115.194 69.1641 111.842C69.1641 108.491 73.0741 105.774 77.9021 105.774C82.7271 105.774 86.6401 108.492 86.6401 111.842Z" fill="#3B3E43"/>
<path d="M83.5941 110.028C83.3911 110.833 82.1981 111.221 80.9311 110.9C79.6651 110.579 78.8031 109.666 79.0051 108.86C79.2101 108.055 80.4041 107.667 81.6701 107.988C82.9371 108.311 83.7991 109.222 83.5941 110.028Z" fill="white"/>
<mask id="mask0_8_931" style="mask-type:luminance" maskUnits="userSpaceOnUse" x="37" y="57" width="81" height="72">
<path d="M113.014 93.4819C113.014 73.8749 97.138 57.9779 77.538 57.9429V57.9399C77.526 57.9399 77.5151 57.9409 77.5041 57.9409C77.4921 57.9409 77.482 57.9399 77.47 57.9399V57.9429C77.454 57.9429 77.437 57.9429 77.421 57.9429C77.405 57.9429 77.387 57.9429 77.371 57.9429V57.9399C77.358 57.9399 77.348 57.9409 77.337 57.9409C77.325 57.9409 77.313 57.9399 77.302 57.9399V57.9429C57.703 57.9779 41.8261 73.8759 41.8261 93.4819C41.8261 93.9459 33.286 103.579 39.121 115.085C42.348 121.447 60.151 128.246 77.115 128.433C95.1 128.631 112.297 121.831 115.719 115.085C121.554 103.579 113.014 93.9459 113.014 93.4819Z" fill="white"/>
</mask>
<g mask="url(#mask0_8_931)">
<path d="M70.4081 131.755C67.5571 135.412 56.488 131.561 45.682 123.146C34.876 114.733 28.425 104.944 31.275 101.284C34.124 97.625 45.197 101.48 56 109.892C66.809 118.306 73.2581 128.092 70.4081 131.755Z" fill="#F3DBBD"/>
</g>
<mask id="mask1_8_931" style="mask-type:luminance" maskUnits="userSpaceOnUse" x="37" y="57" width="81" height="72">
<path d="M113.014 93.4819C113.014 73.8749 97.138 57.9779 77.538 57.9429V57.9399C77.526 57.9399 77.5151 57.9409 77.5041 57.9409C77.4921 57.9409 77.482 57.9399 77.47 57.9399V57.9429C77.454 57.9429 77.437 57.9429 77.421 57.9429C77.405 57.9429 77.387 57.9429 77.371 57.9429V57.9399C77.358 57.9399 77.348 57.9409 77.337 57.9409C77.325 57.9409 77.313 57.9399 77.302 57.9399V57.9429C57.703 57.9779 41.8261 73.8759 41.8261 93.4819C41.8261 93.9459 33.286 103.579 39.121 115.085C42.348 121.447 60.151 128.246 77.115 128.433C95.1 128.631 112.297 121.831 115.719 115.085C121.554 103.579 113.014 93.9459 113.014 93.4819Z" fill="white"/>
</mask>
<g mask="url(#mask1_8_931)">
<path d="M84.6161 130.286C87.4511 133.744 98.7621 129.923 109.879 121.75C120.996 113.58 127.71 104.152 124.876 100.692C122.041 97.2351 110.728 101.057 99.6111 109.227C88.4971 117.4 81.7821 126.826 84.6161 130.286Z" fill="#F3DBBD"/>
</g>
</g>
<defs>
<clipPath id="clip0_8_931">
<rect width="155" height="155" fill="white"/>
</clipPath>
</defs>
</svg>
