<svg width="156" height="156" viewBox="0 0 156 156" fill="none" xmlns="http://www.w3.org/2000/svg">
<path d="M155.499 77.7201C155.499 120.432 120.874 155.057 78.162 155.057C35.448 155.057 0.822998 120.432 0.822998 77.7201C0.822998 35.0061 35.448 0.381104 78.162 0.381104C120.874 0.381104 155.499 35.0061 155.499 77.7201Z" fill="#0068B7"/>
<path d="M58.003 62.6632C65.8161 54.8501 65.8161 42.1825 58.003 34.3693C50.1898 26.5562 37.5222 26.5562 29.7091 34.3693C21.8959 42.1825 21.896 54.8501 29.7091 62.6632C37.5222 70.4764 50.1898 70.4764 58.003 62.6632Z" fill="#313439"/>
<path d="M132.465 48.5151C132.465 59.5641 123.506 68.5221 112.457 68.5221C101.408 68.5221 92.451 59.5641 92.451 48.5151C92.451 37.4671 101.408 28.5081 112.457 28.5081C123.506 28.5081 132.465 37.4671 132.465 48.5151Z" fill="#313439"/>
<path d="M126.704 81.9019C132.164 105.816 126.704 126.929 78.3901 126.929C30.0771 126.929 28.072 108.197 32.98 81.9019C37.669 56.7739 51.7071 37.6689 78.3901 37.6689C105.073 37.6689 121.01 56.9649 126.704 81.9019Z" fill="#F7F1E6"/>
<path d="M90.5171 87.646C93.0881 96.279 103.684 97.696 109.653 93.909C115.621 90.121 116.729 81.175 112.13 73.929C107.532 66.682 98.9661 63.877 92.9971 67.665C87.0281 71.452 88.0681 79.418 90.5171 87.646Z" fill="#3B3E43"/>
<path d="M88.5291 100.052C88.5291 103.341 84.6911 107.436 79.9551 107.436C75.2191 107.436 71.3811 103.341 71.3811 100.052C71.3811 96.7649 75.2191 94.0969 79.9551 94.0969C84.6911 94.0969 88.5291 96.7649 88.5291 100.052Z" fill="#3B3E43"/>
<path d="M71.0161 117.497C68.6641 117.497 66.0611 116.338 63.2401 114.029C62.8641 113.722 62.8082 113.169 63.1162 112.793C63.4252 112.416 63.9772 112.361 64.3532 112.669C67.6512 115.367 70.4931 116.291 72.7951 115.415C77.3851 113.669 78.7441 105.455 78.7561 105.373C78.8341 104.894 79.2821 104.565 79.7641 104.643C80.2441 104.72 80.5712 105.17 80.4942 105.649C80.4342 106.029 78.9511 114.956 73.4201 117.059C72.6511 117.352 71.8501 117.497 71.0161 117.497Z" fill="#3B3E43"/>
<path d="M87.3421 118.269C86.6161 118.269 85.9191 118.135 85.2541 117.869C79.9941 115.764 79.0101 106.011 78.9701 105.595C78.9241 105.112 79.2791 104.682 79.7621 104.637C80.2441 104.587 80.6761 104.946 80.7201 105.428C80.9631 107.954 82.3681 114.821 85.9101 116.237C87.8521 117.013 90.3281 116.115 93.2681 113.564C93.6351 113.247 94.1901 113.287 94.5061 113.653C94.8251 114.019 94.7851 114.575 94.4201 114.894C91.8291 117.139 89.4581 118.269 87.3421 118.269Z" fill="#3B3E43"/>
<path d="M94.691 81.8129C94.691 85.7359 97.8691 88.9139 101.791 88.9139C105.713 88.9139 108.893 85.7359 108.893 81.8129C108.893 77.8919 105.713 74.7119 101.791 74.7119C97.8691 74.7119 94.691 77.8919 94.691 81.8129Z" fill="white"/>
<path d="M98.197 81.8728C98.197 83.8568 99.806 85.4668 101.791 85.4668C103.775 85.4668 105.385 83.8578 105.385 81.8728C105.385 79.8878 103.776 78.2788 101.791 78.2788C99.807 78.2788 98.197 79.8878 98.197 81.8728Z" fill="#3B3E43"/>
<path d="M100.982 79.0489C100.982 80.0919 101.826 80.9369 102.869 80.9369C103.911 80.9369 104.756 80.0919 104.756 79.0489C104.756 78.0069 103.911 77.1619 102.869 77.1619C101.826 77.1619 100.982 78.0069 100.982 79.0489Z" fill="white"/>
<path d="M71.1071 86.033C68.5351 94.667 57.9411 96.083 51.9731 92.295C46.0051 88.508 44.8951 79.5629 49.4941 72.3169C54.0951 65.0689 62.6621 62.266 68.6291 66.053C74.5971 69.842 73.5571 77.807 71.1071 86.033Z" fill="#3B3E43"/>
<path d="M67.2521 80.0161C67.2521 83.9381 64.073 87.1171 60.152 87.1171C56.231 87.1171 53.05 83.9381 53.05 80.0161C53.05 76.0951 56.231 72.9141 60.152 72.9141C64.073 72.9141 67.2521 76.0951 67.2521 80.0161Z" fill="white"/>
<path d="M63.7461 80.076C63.7461 82.061 62.1371 83.67 60.1521 83.67C58.1681 83.67 56.5581 82.062 56.5581 80.076C56.5581 78.091 58.1671 76.48 60.1521 76.48C62.1371 76.48 63.7461 78.091 63.7461 80.076Z" fill="#3B3E43"/>
<path d="M60.9611 77.252C60.9611 78.295 60.1171 79.14 59.0741 79.14C58.0321 79.14 57.1871 78.295 57.1871 77.252C57.1871 76.209 58.0321 75.364 59.0741 75.364C60.1171 75.364 60.9611 76.209 60.9611 77.252Z" fill="white"/>
<path d="M85.5411 98.2691C85.3391 99.0591 84.1691 99.441 82.9271 99.125C81.6841 98.809 80.8381 97.914 81.0391 97.125C81.2401 96.335 82.4091 95.9521 83.6531 96.2691C84.8941 96.5851 85.7401 97.4791 85.5411 98.2691Z" fill="white"/>
</svg>
