<svg width="163" height="163" viewBox="0 0 163 163" fill="none" xmlns="http://www.w3.org/2000/svg">
<g clip-path="url(#clip0_8_972)" filter="url(#filter0_d_8_972)">
<path d="M158.676 77.339C158.676 120.051 124.051 154.676 81.337 154.676C38.625 154.676 4 120.051 4 77.339C4 34.625 38.625 0 81.337 0C124.051 0 158.676 34.625 158.676 77.339Z" fill="#3C3033"/>
<path d="M95.679 42.7338C91.355 48.8258 93.168 57.5408 99.727 62.1988C106.289 66.8548 115.113 65.6918 119.437 59.6008C123.76 53.5108 124.567 35.4778 121.858 32.8218C119.152 30.1668 100.006 36.6438 95.679 42.7338Z" fill="#EA692B"/>
<path d="M98.9409 47.054C96.5199 51.112 98.0989 56.513 102.469 59.117C106.838 61.725 112.343 60.551 114.767 56.493C117.184 52.435 120.482 38.575 117.373 36.998C114.263 35.423 101.362 42.994 98.9409 47.054Z" fill="#F3DBBD"/>
<path d="M69.1759 42.7338C73.4989 48.8258 71.6859 57.5408 65.1269 62.1988C58.5659 66.8548 49.743 65.6918 45.418 59.6008C41.093 53.5108 40.2869 35.4778 42.9949 32.8218C45.7029 30.1668 64.8489 36.6438 69.1759 42.7338Z" fill="#EA692B"/>
<path d="M65.913 47.054C68.334 51.112 66.756 56.513 62.385 59.117C58.016 61.725 52.512 60.551 50.089 56.493C47.671 52.435 44.371 38.575 47.481 36.998C50.592 35.423 63.494 42.994 65.913 47.054Z" fill="#F3DBBD"/>
<path d="M130.986 100.311C130.386 99.8748 129.607 99.4538 128.686 99.0698C128.933 99.2208 129.158 99.3558 129.373 99.4778C129.964 99.7388 130.506 100.017 130.986 100.311Z" fill="#F6F3CF"/>
<path d="M130.986 100.311C130.506 100.017 129.965 99.7388 129.373 99.4778C130.349 100.04 130.986 100.311 130.986 100.311Z" fill="#F6F3CF"/>
<path d="M34.71 99.0698C33.789 99.4548 33.011 99.8758 32.408 100.311C32.89 100.017 33.43 99.7388 34.022 99.4778C34.241 99.3558 34.467 99.2218 34.71 99.0698Z" fill="#F6F3CF"/>
<path d="M32.408 100.311C32.408 100.311 33.049 100.039 34.022 99.4778C33.429 99.7388 32.89 100.017 32.408 100.311Z" fill="#F6F3CF"/>
<path d="M81.663 47.6099V47.6119C81.675 47.6119 81.686 47.6099 81.699 47.6099C81.686 47.6099 81.674 47.6099 81.663 47.6099Z" fill="#E96332"/>
<path d="M81.736 47.6099C81.723 47.6099 81.71 47.6099 81.699 47.6099C81.71 47.6099 81.723 47.6119 81.736 47.6119V47.6099Z" fill="#A84720"/>
<path d="M119.561 85.3499C119.561 64.5299 102.704 47.6519 81.893 47.6119V47.6099C81.88 47.6099 81.868 47.6119 81.854 47.6119C81.844 47.6119 81.832 47.6099 81.819 47.6099V47.6119C81.803 47.6119 81.785 47.6119 81.767 47.6119C81.75 47.6119 81.732 47.6119 81.715 47.6119V47.6099C81.702 47.6099 81.692 47.6119 81.678 47.6119C81.665 47.6119 81.655 47.6099 81.642 47.6099V47.6119C60.831 47.6519 43.973 64.5299 43.973 85.3499C43.973 85.8399 34.907 96.0699 41.101 108.287C44.527 115.043 63.431 122.263 81.442 122.461C100.542 122.671 118.801 115.45 122.434 108.287C128.629 96.0699 119.561 85.8409 119.561 85.3499Z" fill="#EA692B"/>
<path d="M91.2079 79.3608C91.2079 82.5548 93.802 85.1468 96.996 85.1468C100.191 85.1468 102.784 82.5548 102.784 79.3608C102.784 76.1648 100.191 73.5718 96.996 73.5718C93.801 73.5718 91.2079 76.1648 91.2079 79.3608Z" fill="#3B3E43"/>
<path d="M95.693 74.8159C95.693 76.4939 97.054 77.8529 98.731 77.8529C100.409 77.8529 101.771 76.4939 101.771 74.8159C101.771 73.1359 100.409 71.7769 98.731 71.7769C97.054 71.7769 95.693 73.1369 95.693 74.8159Z" fill="white"/>
<path d="M74.095 79.3608C74.095 82.5548 71.504 85.1468 68.31 85.1468C65.114 85.1468 62.524 82.5548 62.524 79.3608C62.524 76.1648 65.114 73.5718 68.31 73.5718C71.505 73.5718 74.095 76.1648 74.095 79.3608Z" fill="#3B3E43"/>
<path d="M69.613 74.8159C69.613 76.4939 68.253 77.8529 66.575 77.8529C64.896 77.8529 63.5359 76.4939 63.5359 74.8159C63.5359 73.1359 64.896 71.7769 66.575 71.7769C68.253 71.7769 69.613 73.1369 69.613 74.8159Z" fill="white"/>
<mask id="mask0_8_972" style="mask-type:luminance" maskUnits="userSpaceOnUse" x="38" y="47" width="87" height="76">
<path d="M119.561 85.3499C119.561 64.5299 102.704 47.6519 81.893 47.6119V47.6099C81.88 47.6099 81.868 47.6119 81.854 47.6119C81.844 47.6119 81.832 47.6099 81.819 47.6099V47.6119C81.803 47.6119 81.785 47.6119 81.767 47.6119C81.75 47.6119 81.732 47.6119 81.715 47.6119V47.6099C81.702 47.6099 81.692 47.6119 81.678 47.6119C81.665 47.6119 81.655 47.6099 81.642 47.6099V47.6119C60.831 47.6519 43.973 64.5299 43.973 85.3499C43.973 85.8399 34.907 96.0699 41.101 108.287C44.527 115.043 63.431 122.263 81.442 122.461C100.542 122.671 118.801 115.45 122.434 108.287C128.629 96.0699 119.561 85.8409 119.561 85.3499Z" fill="white"/>
</mask>
<g mask="url(#mask0_8_972)">
<path d="M109.573 111.393C109.573 120.184 96.978 127.31 81.442 127.31C65.908 127.31 53.312 120.184 53.312 111.393C53.312 102.603 65.908 95.4749 81.442 95.4749C96.978 95.4749 109.573 102.603 109.573 111.393Z" fill="#F3DBBD"/>
</g>
<path d="M89.6219 95.5348C89.6219 98.4668 86.198 102.118 81.977 102.118C77.756 102.118 74.3329 98.4668 74.3329 95.5348C74.3329 92.6028 77.756 90.2278 81.977 90.2278C86.198 90.2278 89.6219 92.6028 89.6219 95.5348Z" fill="#3B3E43"/>
<path d="M74.008 111.088C71.912 111.088 69.5899 110.053 67.0759 107.997C66.7389 107.723 66.689 107.228 66.965 106.894C67.241 106.56 67.735 106.509 68.069 106.784C71.008 109.189 73.542 110.013 75.594 109.231C79.685 107.675 80.898 100.352 80.909 100.28C80.976 99.8498 81.378 99.5588 81.806 99.6278C82.233 99.6978 82.525 100.1 82.457 100.526C82.405 100.866 81.0809 108.821 76.1489 110.697C75.4649 110.958 74.752 111.088 74.008 111.088Z" fill="#3B3E43"/>
<path d="M88.5619 111.774C87.9169 111.774 87.294 111.657 86.702 111.42C82.013 109.543 81.136 100.846 81.099 100.478C81.058 100.046 81.372 99.6638 81.804 99.6238C82.234 99.5808 82.618 99.8978 82.66 100.33C82.876 102.581 84.128 108.704 87.285 109.964C89.015 110.657 91.222 109.857 93.844 107.584C94.173 107.3 94.6649 107.335 94.9499 107.662C95.2319 107.989 95.1969 108.483 94.8719 108.769C92.5629 110.767 90.4499 111.774 88.5619 111.774Z" fill="#3B3E43"/>
<path d="M86.957 93.9469C86.778 94.6509 85.735 94.9909 84.627 94.7089C83.519 94.4299 82.767 93.6299 82.943 92.9259C83.121 92.2229 84.165 91.8819 85.275 92.1629C86.381 92.4449 87.136 93.2429 86.957 93.9469Z" fill="white"/>
<path d="M62.588 101.718C62.375 101.718 62.161 101.637 61.997 101.477C61.885 101.369 52.765 92.7818 26.994 88.8428C26.532 88.7738 26.216 88.3408 26.286 87.8798C26.356 87.4188 26.779 87.0988 27.25 87.1728C53.677 91.2088 62.805 99.8998 63.18 100.268C63.514 100.594 63.518 101.13 63.192 101.463C63.026 101.632 62.806 101.718 62.588 101.718Z" fill="#3D342F"/>
<path d="M61.064 105.114C60.921 105.114 60.778 105.079 60.647 105.004C60.513 104.93 49.518 98.9268 23.586 101.622C23.116 101.671 22.706 101.334 22.658 100.868C22.609 100.405 22.945 99.9888 23.411 99.9408C49.999 97.1708 61.028 103.273 61.484 103.535C61.888 103.767 62.03 104.284 61.798 104.69C61.643 104.962 61.357 105.114 61.064 105.114Z" fill="#3D342F"/>
<path d="M23.22 114.338C22.868 114.338 22.539 114.117 22.42 113.767C22.268 113.325 22.503 112.843 22.945 112.693C48.233 104.032 60.35 107.505 60.852 107.656C61.299 107.791 61.552 108.264 61.417 108.71C61.284 109.157 60.812 109.407 60.365 109.275C60.245 109.241 48.186 105.835 23.493 114.293C23.404 114.322 23.31 114.338 23.22 114.338Z" fill="#3D342F"/>
<path d="M100.089 103.025C99.87 103.025 99.65 102.94 99.486 102.771C99.158 102.438 99.1629 101.902 99.4969 101.576C99.8729 101.209 108.999 92.5169 135.426 88.4809C135.896 88.4089 136.319 88.7269 136.39 89.1879C136.461 89.6489 136.144 90.0819 135.683 90.1519C109.79 94.1059 100.769 102.697 100.681 102.783C100.516 102.945 100.302 103.025 100.089 103.025Z" fill="#3D342F"/>
<path d="M101.614 106.422C101.319 106.422 101.034 106.268 100.878 105.995C100.648 105.589 100.788 105.074 101.192 104.843C101.648 104.582 112.674 98.4819 139.264 101.25C139.728 101.298 140.066 101.714 140.017 102.178C139.969 102.641 139.558 102.981 139.088 102.931C113.125 100.231 102.138 106.251 102.031 106.312C101.899 106.387 101.756 106.422 101.614 106.422Z" fill="#3D342F"/>
<path d="M139.457 115.646C139.367 115.646 139.274 115.631 139.184 115.601C114.493 107.144 102.432 110.548 102.312 110.583C101.867 110.714 101.393 110.462 101.26 110.016C101.126 109.569 101.377 109.098 101.824 108.964C102.327 108.812 114.443 105.34 139.732 114C140.173 114.151 140.409 114.632 140.256 115.073C140.136 115.426 139.809 115.646 139.457 115.646Z" fill="#3D342F"/>
</g>
<defs>
<filter id="filter0_d_8_972" x="0" y="0" width="163" height="163" filterUnits="userSpaceOnUse" color-interpolation-filters="sRGB">
<feFlood flood-opacity="0" result="BackgroundImageFix"/>
<feColorMatrix in="SourceAlpha" type="matrix" values="0 0 0 0 0 0 0 0 0 0 0 0 0 0 0 0 0 0 127 0" result="hardAlpha"/>
<feOffset dy="4"/>
<feGaussianBlur stdDeviation="2"/>
<feComposite in2="hardAlpha" operator="out"/>
<feColorMatrix type="matrix" values="0 0 0 0 0 0 0 0 0 0 0 0 0 0 0 0 0 0 0.25 0"/>
<feBlend mode="normal" in2="BackgroundImageFix" result="effect1_dropShadow_8_972"/>
<feBlend mode="normal" in="SourceGraphic" in2="effect1_dropShadow_8_972" result="shape"/>
</filter>
<clipPath id="clip0_8_972">
<rect width="155" height="155" fill="white" transform="translate(4)"/>
</clipPath>
</defs>
</svg>
