<svg width="156" height="156" viewBox="0 0 156 156" fill="none" xmlns="http://www.w3.org/2000/svg">
<g clip-path="url(#clip0_8_888)">
<path d="M155.499 77.802C155.499 120.514 120.874 155.14 78.162 155.14C35.448 155.14 0.822998 120.514 0.822998 77.802C0.822998 35.089 35.448 0.463989 78.162 0.463989C120.874 0.463989 155.499 35.089 155.499 77.802Z" fill="#62A5A2"/>
<path d="M71.6951 55.465C71.6951 64.309 64.5241 71.48 55.6811 71.48C46.8351 71.48 39.665 64.31 39.665 55.465C39.665 46.619 46.8351 39.45 55.6811 39.45C64.5241 39.451 71.6951 46.62 71.6951 55.465Z" fill="#E39335"/>
<path d="M65.291 55.465C65.291 60.772 60.988 65.073 55.682 65.073C50.374 65.073 46.072 60.772 46.072 55.465C46.072 50.157 50.375 45.856 55.682 45.856C60.988 45.856 65.291 50.158 65.291 55.465Z" fill="#8A603C"/>
<path d="M83.3982 55.465C83.3982 64.309 90.5702 71.48 99.4122 71.48C108.259 71.48 115.428 64.31 115.428 55.465C115.428 46.619 108.259 39.45 99.4122 39.45C90.5702 39.451 83.3982 46.62 83.3982 55.465Z" fill="#E39335"/>
<path d="M89.8052 55.465C89.8052 60.772 94.1082 65.073 99.4122 65.073C104.721 65.073 109.023 60.772 109.023 55.465C109.023 50.157 104.72 45.856 99.4122 45.856C94.1072 45.856 89.8052 50.158 89.8052 55.465Z" fill="#8A603C"/>
<path d="M110.281 80.7079C105.546 56.8229 98.3392 50.3789 77.8202 50.3789C77.7282 50.3789 77.6371 50.3819 77.5481 50.3819C77.4571 50.3819 77.3672 50.3789 77.2762 50.3789C56.7562 50.3789 49.5482 56.8229 44.8142 80.7079C37.7132 90.1849 38.7632 119.069 75.9162 119.069C76.4682 119.069 77.0091 119.064 77.5481 119.056C78.0851 119.064 78.6272 119.069 79.1802 119.069C116.333 119.069 117.382 90.1849 110.281 80.7079Z" fill="#E39335"/>
<mask id="mask0_8_888" style="mask-type:luminance" maskUnits="userSpaceOnUse" x="41" y="48" width="73" height="72">
<path d="M110.281 79.5439C105.546 54.9349 98.3392 48.2959 77.8202 48.2959C77.7282 48.2959 77.6371 48.2989 77.5481 48.2999C77.4571 48.2989 77.3672 48.2959 77.2762 48.2959C56.7562 48.2959 49.5482 54.9359 44.8142 79.5439C37.7132 89.3089 38.7632 119.069 75.9162 119.069C76.4682 119.069 77.0091 119.064 77.5481 119.056C78.0851 119.064 78.6272 119.069 79.1802 119.069C116.333 119.069 117.382 89.3089 110.281 79.5439Z" fill="white"/>
</mask>
<g mask="url(#mask0_8_888)">
<path d="M119.304 127.458C119.304 145.147 102.06 159.487 77.9001 159.487C53.7391 159.487 36.4951 145.147 36.4951 127.458C36.4951 109.769 53.7391 89.5688 77.9001 89.5688C102.06 89.5698 119.304 109.769 119.304 127.458Z" fill="#F3DBBD"/>
</g>
<path d="M66.6921 77.3949C66.6921 80.8779 63.8691 83.7009 60.3861 83.7009C56.9021 83.7009 54.0771 80.8779 54.0771 77.3949C54.0771 73.9109 56.9011 71.0859 60.3861 71.0859C63.8691 71.0849 66.6921 73.9109 66.6921 77.3949Z" fill="#8A603C"/>
<path d="M63.5791 77.448C63.5791 79.211 62.1491 80.639 60.3871 80.639C58.6241 80.639 57.1941 79.21 57.1941 77.448C57.1941 75.685 58.6251 74.255 60.3871 74.255C62.1491 74.254 63.5791 75.685 63.5791 77.448Z" fill="#3B3E43"/>
<path d="M61.1031 74.939C61.1031 75.865 60.3541 76.615 59.4271 76.615C58.5021 76.615 57.7511 75.866 57.7511 74.939C57.7511 74.012 58.5021 73.262 59.4271 73.262C60.3541 73.262 61.1031 74.013 61.1031 74.939Z" fill="white"/>
<path d="M85.9851 92.0679C85.9851 94.9889 82.5751 97.455 78.3691 97.455C74.1611 97.455 70.7511 94.9899 70.7511 92.0679C70.7511 89.1459 74.1611 86.778 78.3691 86.778C82.5751 86.778 85.9851 89.1459 85.9851 92.0679Z" fill="#3B3E43"/>
<path d="M70.4281 107.564C68.3381 107.564 66.0241 106.534 63.5201 104.484C63.1861 104.211 63.1361 103.719 63.4101 103.385C63.6821 103.051 64.1751 103.001 64.5101 103.275C67.4391 105.672 69.9631 106.493 72.0101 105.714C76.0861 104.163 77.2931 96.868 77.3041 96.794C77.3721 96.368 77.7741 96.075 78.2001 96.146C78.6261 96.213 78.9161 96.613 78.8481 97.039C78.7931 97.376 77.4791 105.306 72.5651 107.175C71.8801 107.435 71.1671 107.564 70.4281 107.564Z" fill="#3B3E43"/>
<path d="M84.9311 108.25C84.2851 108.25 83.6651 108.131 83.0771 107.895C78.4051 106.025 77.5291 97.36 77.4931 96.992C77.4521 96.563 77.7661 96.181 78.1971 96.14C78.6261 96.097 79.0101 96.415 79.0491 96.844C79.2641 99.089 80.5131 105.188 83.6561 106.446C85.3841 107.137 87.5821 106.337 90.1941 104.073C90.5201 103.789 91.0131 103.824 91.2961 104.15C91.5791 104.476 91.5431 104.97 91.2191 105.252C88.9161 107.246 86.8111 108.25 84.9311 108.25Z" fill="#3B3E43"/>
<path d="M83.329 90.4829C83.149 91.1839 82.112 91.5239 81.009 91.2429C79.903 90.9629 79.1531 90.1679 79.3301 89.4669C79.5111 88.7659 80.548 88.4249 81.652 88.7059C82.757 88.9879 83.508 89.7819 83.329 90.4829Z" fill="white"/>
<path d="M88.4011 77.3949C88.4011 80.8779 91.2241 83.7009 94.7081 83.7009C98.1921 83.7009 101.017 80.8779 101.017 77.3949C101.017 73.9109 98.1921 71.0859 94.7081 71.0859C91.2241 71.0859 88.4011 73.9109 88.4011 77.3949Z" fill="#8A603C"/>
<path d="M91.5171 77.448C91.5171 79.211 92.9471 80.639 94.7081 80.639C96.4721 80.639 97.9011 79.21 97.9011 77.448C97.9011 75.685 96.4711 74.255 94.7081 74.255C92.9461 74.254 91.5171 75.685 91.5171 77.448Z" fill="#3B3E43"/>
<path d="M93.99 74.939C93.99 75.865 94.74 76.615 95.667 76.615C96.591 76.615 97.344 75.866 97.344 74.939C97.344 74.012 96.591 73.262 95.667 73.262C94.74 73.262 93.99 74.013 93.99 74.939Z" fill="white"/>
<path d="M62.7422 94.3569C62.7422 94.3569 54.1972 88.9579 30.6792 88.5129" stroke="#3D342F" stroke-width="2" stroke-miterlimit="10" stroke-linecap="round"/>
<path d="M61.6531 96.8899C61.6531 96.8899 51.5951 93.4719 28.4331 97.8449" stroke="#3D342F" stroke-width="2" stroke-miterlimit="10" stroke-linecap="round"/>
<path d="M61.5601 99.8879C61.5601 99.8879 50.7041 98.4149 29.1151 106.828" stroke="#3D342F" stroke-width="2" stroke-miterlimit="10" stroke-linecap="round"/>
<path d="M93.144 95.139C93.144 95.139 101.689 89.74 125.207 89.293" stroke="#3D342F" stroke-width="2" stroke-miterlimit="10" stroke-linecap="round"/>
<path d="M94.233 97.67C94.233 97.67 104.291 94.252 127.453 98.626" stroke="#3D342F" stroke-width="2" stroke-miterlimit="10" stroke-linecap="round"/>
<path d="M94.326 100.669C94.326 100.669 105.181 99.1948 126.77 107.609" stroke="#3D342F" stroke-width="2" stroke-miterlimit="10" stroke-linecap="round"/>
</g>
<defs>
<clipPath id="clip0_8_888">
<rect width="156" height="156" fill="white"/>
</clipPath>
</defs>
</svg>
