<svg width="156" height="156" viewBox="0 0 156 156" fill="none" xmlns="http://www.w3.org/2000/svg">
<g clip-path="url(#clip0_8_916)">
<path d="M154.387 90.9854C161.49 48.8665 133.105 8.96421 90.9856 1.86111C48.8667 -5.242 8.9644 23.1439 1.86129 65.2628C-5.24181 107.382 23.1441 147.284 65.263 154.387C107.382 161.49 147.284 133.104 154.387 90.9854Z" fill="#AA8546"/>
<path d="M139.153 76.0864C139.153 84.3354 132.465 91.0224 124.216 91.0224C115.967 91.0224 109.279 84.3364 109.279 76.0864C109.279 67.8364 115.967 61.1494 124.216 61.1494C132.465 61.1504 139.153 67.8374 139.153 76.0864Z" fill="#7B5735"/>
<path d="M133.791 76.0864C133.791 81.3744 129.506 85.6604 124.217 85.6604C118.929 85.6604 114.642 81.3744 114.642 76.0864C114.642 70.7974 118.929 66.5114 124.217 66.5114C129.506 66.5124 133.791 70.7984 133.791 76.0864Z" fill="#F3DBBD"/>
<path d="M46.9661 74.1764C46.9661 82.4244 40.2781 89.1114 32.0301 89.1114C23.7811 89.1114 17.0931 82.4244 17.0931 74.1764C17.0931 65.9264 23.7811 59.2394 32.0301 59.2394C40.2781 59.2404 46.9661 65.9264 46.9661 74.1764Z" fill="#7B5735"/>
<path d="M41.6061 74.1764C41.6061 79.4644 37.3181 83.7504 32.0311 83.7504C26.7421 83.7504 22.4561 79.4644 22.4561 74.1764C22.4561 68.8874 26.7421 64.6014 32.0311 64.6014C37.3181 64.6014 41.6061 68.8884 41.6061 74.1764Z" fill="#F3DBBD"/>
<path d="M124.702 77.9805C124.702 103.892 103.697 124.896 77.7861 124.896C51.8751 124.896 30.8711 103.892 30.8711 77.9805C30.8711 52.0695 51.8751 31.0645 77.7861 31.0645C103.697 31.0655 124.702 52.0695 124.702 77.9805Z" fill="#8A603C"/>
<path d="M117.492 74.4784C117.534 63.1964 108.423 54.0154 97.1401 53.9724C88.3171 53.9384 80.7781 59.5044 77.8921 67.3284C75.0631 59.4834 67.5681 53.8604 58.7451 53.8274C47.4621 53.7844 38.2821 62.8964 38.2391 74.1784C38.1961 85.4604 47.3071 94.6414 58.5901 94.6854C58.9021 94.6854 59.2101 94.6774 59.5191 94.6654C58.1921 98.1194 57.4371 101.64 57.4371 104.772C57.4371 116.053 66.5831 125.199 77.8651 125.199C89.1481 125.199 98.2941 116.053 98.2941 104.772C98.2941 101.686 97.6531 98.2214 96.4971 94.8164C96.6601 94.8204 96.8221 94.8304 96.9851 94.8304C108.268 94.8724 117.448 85.7614 117.492 74.4784Z" fill="#F3DBBD"/>
<path d="M86.3291 74.9804C86.3291 80.8104 91.0541 85.5334 96.8831 85.5334C102.713 85.5334 107.435 80.8104 107.435 74.9804C107.435 69.1514 102.712 64.4274 96.8831 64.4274C91.0541 64.4274 86.3291 69.1524 86.3291 74.9804Z" fill="#D1BEA5"/>
<path d="M90.1771 75.0664C90.1771 78.5344 92.9881 81.3444 96.4551 81.3444C99.9221 81.3444 102.734 78.5344 102.734 75.0664C102.734 71.5994 99.9221 68.7874 96.4551 68.7874C92.9881 68.7874 90.1771 71.5994 90.1771 75.0664Z" fill="#3D342F"/>
<path d="M95.5591 69.8844C95.5591 71.5354 96.8961 72.8734 98.5471 72.8734C100.199 72.8734 101.538 71.5354 101.538 69.8844C101.538 68.2334 100.199 66.8944 98.5471 66.8944C96.8971 66.8944 95.5591 68.2334 95.5591 69.8844Z" fill="white"/>
<path d="M69.6021 74.9804C69.6021 80.8104 64.8791 85.5334 59.0501 85.5334C53.2201 85.5334 48.4961 80.8104 48.4961 74.9804C48.4961 69.1514 53.2211 64.4274 59.0501 64.4274C64.8791 64.4274 69.6021 69.1524 69.6021 74.9804Z" fill="#D1BEA5"/>
<path d="M65.7551 75.0664C65.7551 78.5344 62.9441 81.3444 59.4771 81.3444C56.0101 81.3444 53.1981 78.5344 53.1981 75.0664C53.1981 71.5994 56.0101 68.7874 59.4771 68.7874C62.9441 68.7874 65.7551 71.5994 65.7551 75.0664Z" fill="#3D342F"/>
<path d="M60.3731 69.8844C60.3731 71.5354 59.0361 72.8734 57.3851 72.8734C55.7331 72.8734 54.3951 71.5354 54.3951 69.8844C54.3951 68.2334 55.7331 66.8944 57.3851 66.8944C59.0361 66.8944 60.3731 68.2334 60.3731 69.8844Z" fill="white"/>
<path d="M82.3971 109.194C82.3971 111.424 80.5891 113.231 78.3591 113.231C76.1291 113.231 74.3221 111.423 74.3221 109.194C74.3221 106.964 76.1291 105.156 78.3591 105.156C80.5891 105.156 82.3971 106.964 82.3971 109.194Z" fill="#3D342F"/>
</g>
<defs>
<clipPath id="clip0_8_916">
<rect width="156" height="156" fill="white"/>
</clipPath>
</defs>
</svg>
