<svg width="155" height="156" viewBox="0 0 155 156" fill="none" xmlns="http://www.w3.org/2000/svg">
<g clip-path="url(#clip0_8_1004)">
<path d="M154.897 78.1591C154.897 120.87 120.272 155.496 77.558 155.496C34.846 155.496 0.221008 120.87 0.221008 78.1591C0.221008 35.4451 34.846 0.820068 77.558 0.820068C120.272 0.820068 154.897 35.4451 154.897 78.1591Z" fill="#838BA6"/>
<path d="M57.975 38.0629C57.975 38.0069 57.237 37.0119 56.162 36.0049C53.974 33.9579 49.832 30.9319 43.846 30.0439C34.56 28.6509 19.355 37.2569 17.285 65.1379C15.224 93.0159 26.473 95.7669 35.249 95.7669C42.526 95.7669 50.928 90.6279 57.33 83.3269C61.433 68.0499 57.975 38.0789 57.975 38.0629Z" fill="#CCC8C0"/>
<path d="M97.767 38.393C97.767 38.337 98.503 37.343 99.578 36.335C101.764 34.288 105.908 31.262 111.892 30.373C121.18 28.98 135.752 36.954 137.822 64.835C139.885 92.712 129.268 96.098 120.492 96.098C113.216 96.098 104.814 90.958 98.41 83.658C94.307 68.379 97.765 38.408 97.767 38.393Z" fill="#CCC8C0"/>
<path d="M113.58 119.734C113.124 117.898 116.799 117.55 117.54 111.705C118.286 105.848 113.583 111.477 113.583 111.477C113.583 111.477 110.141 115.437 96.376 114.571C83.695 113.78 87.212 98.6118 87.258 93.4348C87.272 91.9548 87.762 90.6308 88.212 90.4498C88.663 90.2718 89.91 90.9388 90.683 92.1948C92.599 95.2888 94.303 100.316 95.236 103.362C95.672 104.768 96.725 104.965 97.243 103.582C98.933 98.9818 97.696 92.6938 96.508 88.5888C96.105 87.1718 97.004 85.7098 97.488 84.5028C110.017 53.1468 97.841 38.2158 97.841 38.3308C97.837 38.4378 96.984 37.6848 95.841 36.7508C90.836 32.6548 84.541 30.2168 77.711 30.2168C70.965 30.2168 64.755 32.5908 59.776 36.5818C58.921 37.2668 58.232 37.8758 57.932 38.1218C45.018 61.6808 56.717 83.2938 57.14 83.7068C57.572 84.1228 57.894 84.4418 57.855 84.4148C57.822 84.3868 57.347 85.4758 56.888 86.8808C55.629 90.7568 53.696 98.2898 55.634 103.575C56.146 104.96 57.207 104.771 57.637 103.362C58.67 99.9978 60.653 94.1988 62.804 91.2858C63.677 90.0958 64.705 90.7698 64.659 92.2448C64.384 101.216 63.223 109.435 76.543 120.025C88.053 129.175 97.535 126.015 108.405 125.343C109.881 125.252 111.888 124.806 113.345 125.068C114.238 125.227 115.379 125.323 116.797 125.247C120.921 125.011 114.041 121.569 113.58 119.734Z" fill="#E0DCD3"/>
<path d="M60.873 81.394L57.1391 83.8561C54.5021 93.3111 54.827 100.103 54.827 100.103C57.484 112.149 58.314 102.491 59.6 98.707C60.882 94.922 64.3811 91.691 64.3811 91.691L60.873 81.394Z" fill="#F7F1E6"/>
<path d="M96.057 83.8561L91.679 81.394L87.568 91.691C87.568 91.691 91.667 94.921 93.174 98.707C94.68 102.491 95.651 112.149 98.765 100.103C98.765 100.103 99.149 93.3101 96.057 83.8561Z" fill="#F7F1E6"/>
<path d="M71.256 59.7339C71.256 62.0129 69.409 63.8619 67.128 63.8619C64.85 63.8619 63.002 62.0129 63.002 59.7339C63.002 57.4549 64.85 55.6079 67.128 55.6079C69.409 55.6079 71.256 57.4549 71.256 59.7339Z" fill="#313439"/>
<path d="M67.416 56.409C67.416 57.866 66.236 59.047 64.779 59.047C63.323 59.047 62.143 57.866 62.143 56.409C62.143 54.954 63.323 53.7729 64.779 53.7729C66.236 53.7729 67.416 54.954 67.416 56.409Z" fill="white"/>
<path d="M84.895 59.7339C84.895 62.0129 86.743 63.8619 89.021 63.8619C91.301 63.8619 93.149 62.0129 93.149 59.7339C93.149 57.4549 91.301 55.6079 89.021 55.6079C86.743 55.6079 84.895 57.4549 84.895 59.7339Z" fill="#313439"/>
<path d="M88.736 56.409C88.736 57.866 89.915 59.047 91.373 59.047C92.828 59.047 94.008 57.866 94.008 56.409C94.008 54.954 92.828 53.772 91.373 53.772C89.915 53.773 88.736 54.954 88.736 56.409Z" fill="white"/>
</g>
<defs>
<clipPath id="clip0_8_1004">
<rect width="155" height="156" fill="white"/>
</clipPath>
</defs>
</svg>
