<svg width="155" height="155" viewBox="0 0 155 155" fill="none" xmlns="http://www.w3.org/2000/svg">
<g clip-path="url(#clip0_8_956)">
<path d="M154.676 77.338C154.676 120.05 120.051 154.676 77.339 154.676C34.625 154.676 0 120.051 0 77.338C0 34.625 34.625 0 77.339 0C120.051 0.001 154.676 34.626 154.676 77.338Z" fill="#D70051"/>
<path d="M123.41 81.55C123.41 104.26 102.834 122.67 77.452 122.67C52.07 122.67 31.492 104.26 31.492 81.55C31.492 58.84 52.07 40.4299 77.452 40.4299C102.834 40.4299 123.41 58.841 123.41 81.55Z" fill="#F7A99B"/>
<path d="M101.64 99.127C101.64 107.676 91.028 114.608 77.936 114.608C64.843 114.608 54.232 107.676 54.232 99.127C54.232 90.578 64.843 83.647 77.936 83.647C91.028 83.647 101.64 90.578 101.64 99.127Z" fill="#D69488"/>
<path d="M85.709 72.2C85.709 76.898 89.517 80.707 94.215 80.707C98.914 80.707 102.722 76.898 102.722 72.2C102.722 67.502 98.914 63.693 94.215 63.693C89.517 63.693 85.709 67.502 85.709 72.2Z" fill="#D69488"/>
<path d="M88.81 72.269C88.81 75.063 91.076 77.329 93.871 77.329C96.666 77.329 98.932 75.063 98.932 72.269C98.932 69.474 96.666 67.208 93.871 67.208C91.075 67.208 88.81 69.474 88.81 72.269Z" fill="#3D342F"/>
<path d="M93.148 68.091C93.148 69.423 94.227 70.501 95.557 70.501C96.889 70.501 97.968 69.422 97.968 68.091C97.968 66.759 96.889 65.681 95.557 65.681C94.227 65.681 93.148 66.76 93.148 68.091Z" fill="white"/>
<path d="M72.225 72.2C72.225 76.898 68.416 80.707 63.716 80.707C59.019 80.707 55.211 76.898 55.211 72.2C55.211 67.502 59.019 63.693 63.716 63.693C68.416 63.693 72.225 67.502 72.225 72.2Z" fill="#D69488"/>
<path d="M69.122 72.269C69.122 75.063 66.856 77.329 64.062 77.329C61.266 77.329 59 75.063 59 72.269C59 69.474 61.266 67.208 64.062 67.208C66.857 67.208 69.122 69.474 69.122 72.269Z" fill="#3D342F"/>
<path d="M64.783 68.091C64.783 69.423 63.705 70.501 62.375 70.501C61.043 70.501 59.965 69.422 59.965 68.091C59.965 66.759 61.043 65.681 62.375 65.681C63.705 65.681 64.783 66.76 64.783 68.091Z" fill="white"/>
<path d="M73.82 99.449C73.82 101.809 71.907 103.723 69.547 103.723C67.188 103.723 65.274 101.809 65.274 99.449C65.274 97.089 67.188 95.176 69.547 95.176C71.906 95.175 73.82 97.089 73.82 99.449Z" fill="#3D342F"/>
<path d="M91.452 99.664C91.452 102.024 89.538 103.938 87.179 103.938C84.818 103.938 82.904 102.024 82.904 99.664C82.904 97.305 84.817 95.391 87.179 95.391C89.538 95.391 91.452 97.304 91.452 99.664Z" fill="#3D342F"/>
<path d="M123.018 59.536C116.958 64.979 107.793 64.659 102.551 58.821C97.309 52.983 97.972 43.838 104.031 38.395C110.094 32.953 131.777 31.234 132.747 32.312C133.715 33.39 129.079 54.092 123.018 59.536Z" fill="#F7A99B"/>
<path d="M120.923 55.568C116.719 59.344 110.363 59.122 106.725 55.072C103.087 51.023 103.547 44.678 107.754 40.903C111.958 37.128 127 35.935 127.672 36.684C128.344 37.43 125.127 51.792 120.923 55.568Z" fill="#D69488"/>
<path d="M31.657 59.536C37.718 64.979 46.882 64.659 52.124 58.821C57.367 52.983 56.702 43.838 50.642 38.395C44.582 32.953 22.897 31.234 21.929 32.312C20.96 33.39 25.596 54.092 31.657 59.536Z" fill="#F7A99B"/>
<path d="M33.752 55.568C37.956 59.344 44.312 59.122 47.948 55.072C51.586 51.023 51.126 44.678 46.923 40.903C42.717 37.128 27.673 35.935 27.003 36.684C26.33 37.43 29.547 51.792 33.752 55.568Z" fill="#D69488"/>
</g>
<defs>
<clipPath id="clip0_8_956">
<rect width="155" height="155" fill="white"/>
</clipPath>
</defs>
</svg>
